<?xml version="1.0" standalone="no"?>
<!DOCTYPE svg PUBLIC "-//W3C//DTD SVG 20010904//EN"
 "http://www.w3.org/TR/2001/REC-SVG-20010904/DTD/svg10.dtd">
<svg version="1.0" xmlns="http://www.w3.org/2000/svg"
 width="1881.000000pt" height="1881.000000pt" viewBox="0 0 1881.000000 1881.000000"
 preserveAspectRatio="xMidYMid meet">

<g transform="translate(0.000000,1881.000000) scale(0.100000,-0.100000)"
fill="#000000" stroke="none">
<path d="M8791 17630 c-206 -55 -381 -230 -437 -440 -22 -84 -22 -225 1 -310
56 -215 239 -394 455 -444 138 -33 306 -11 433 56 93 49 215 175 260 268 171
357 -20 773 -399 870 -98 25 -215 25 -313 0z m363 -143 c257 -122 362 -412
240 -665 -71 -147 -218 -253 -381 -275 -296 -39 -555 187 -557 488 -1 147 48
260 157 362 110 102 199 134 358 130 98 -3 112 -6 183 -40z"/>
<path d="M16418 15722 c-307 -1 -558 -5 -558 -8 0 -4 10 -16 23 -28 24 -24
163 -171 242 -257 68 -73 216 -246 295 -344 36 -44 67 -82 70 -85 47 -47 356
-470 471 -645 158 -240 292 -462 402 -665 16 -30 40 -73 52 -95 80 -140 236
-469 345 -725 96 -224 102 -239 114 -243 6 -2 127 -4 269 -5 l258 -2 -6 107
c-3 60 -10 277 -15 483 -10 360 -18 637 -57 1923 l-17 587 -286 1 c-157 0
-456 2 -665 2 -209 1 -631 1 -937 -1z"/>
<path d="M14775 15274 c-207 -30 -388 -159 -474 -337 -52 -106 -64 -160 -64
-282 1 -237 127 -442 335 -545 187 -92 369 -92 555 0 368 181 456 667 176 970
-75 81 -149 129 -254 164 -75 25 -207 40 -274 30z m206 -140 c140 -41 254
-138 315 -269 142 -301 -45 -645 -378 -697 -318 -49 -606 237 -560 555 28 194
166 356 347 408 77 22 205 24 276 3z"/>
<path d="M3522 15259 c-231 -30 -427 -190 -503 -409 -30 -89 -37 -249 -15
-344 49 -208 234 -397 442 -451 75 -19 232 -19 309 0 313 79 513 394 451 710
-62 319 -364 537 -684 494z m223 -135 c106 -30 206 -105 267 -198 103 -159
107 -390 9 -537 -103 -152 -250 -232 -426 -231 -220 2 -408 142 -472 352 -21
72 -21 208 1 281 65 218 280 370 500 354 38 -3 93 -12 121 -21z"/>
<path d="M18380 14840 l0 -60 80 -1 c44 -1 86 -2 93 -3 14 -1 22 63 13 101 -6
22 -10 23 -96 23 l-90 0 0 -60z"/>
<path d="M18410 13768 c0 -88 0 -88 107 -88 l94 0 -2 65 -2 65 -99 0 -98 0 0
-42z"/>
<path d="M9404 12903 c4 -87 14 -313 22 -501 9 -189 12 -348 8 -352 -5 -5 -99
-18 -209 -31 -110 -12 -203 -27 -206 -32 -4 -5 -4 -18 -2 -28 4 -15 11 -17 32
-11 47 13 559 6 664 -10 l97 -14 1 71 c1 38 3 81 4 95 2 14 6 93 9 175 4 83
10 205 14 272 8 136 10 133 -65 133 l-33 0 -1 -82 c0 -46 -2 -96 -4 -113 -2
-16 -7 -106 -10 -200 -4 -93 -8 -181 -10 -195 -1 -14 -3 -33 -4 -43 -1 -16 -7
-18 -48 -12 -27 3 -51 9 -55 13 -3 4 0 131 7 282 8 151 16 365 20 475 3 110 8
212 11 226 4 23 1 27 -27 33 -17 3 -74 6 -127 6 l-95 0 7 -157z"/>
<path d="M12090 11160 c-173 -127 -355 -259 -405 -295 l-90 -64 -24 22 c-19
18 -170 193 -242 281 -15 18 -16 18 -42 1 -15 -9 -27 -21 -27 -25 0 -4 31 -45
68 -91 94 -117 218 -308 273 -421 13 -27 28 -48 35 -48 6 0 17 -13 24 -30 7
-16 16 -27 21 -24 5 3 6 -2 3 -11 -4 -8 0 -22 7 -31 7 -9 14 -23 15 -33 5 -32
49 -151 56 -151 4 0 5 -6 3 -12 -3 -7 -1 -19 4 -26 6 -11 20 -7 65 20 31 18
69 40 84 48 91 51 111 64 107 70 -2 4 1 7 8 7 11 0 232 125 279 157 10 7 15
16 10 21 -4 5 -2 5 5 1 15 -8 106 47 96 59 -5 4 -2 5 5 1 18 -11 38 4 21 16
-10 7 -8 8 7 4 11 -4 29 1 40 10 10 8 13 12 5 8 -9 -5 -12 -3 -7 5 4 6 12 8
18 5 14 -9 59 17 51 29 -3 6 -2 7 4 4 5 -3 33 7 61 24 l52 29 -22 45 c-12 25
-26 45 -30 45 -4 0 -8 7 -8 15 0 25 -30 76 -40 70 -6 -3 -7 0 -5 7 6 16 -39
81 -49 71 -4 -4 -4 -1 -1 8 3 8 -2 23 -11 34 -14 18 -15 18 -10 2 4 -11 2 -16
-5 -12 -12 8 -79 -22 -79 -35 0 -6 -6 -10 -13 -10 -7 0 -30 -12 -52 -27 -22
-15 -65 -40 -95 -56 -89 -47 -113 -61 -134 -79 -11 -10 -26 -18 -33 -18 -7 0
-13 -4 -13 -10 0 -6 -3 -9 -7 -8 -5 1 -26 -9 -48 -23 -22 -14 -67 -41 -100
-59 -33 -18 -72 -41 -87 -51 -14 -11 -29 -19 -34 -19 -4 0 -22 -12 -41 -26
-40 -31 -53 -24 -74 38 -10 31 -10 43 -2 45 7 3 28 15 48 28 19 13 54 35 78
49 24 13 145 84 268 156 123 73 239 142 258 152 57 33 201 128 201 133 0 32
-106 205 -125 205 -5 0 -152 -104 -325 -230z m570 -430 c0 -5 -2 -10 -4 -10
-3 0 -8 5 -11 10 -3 6 -1 10 4 10 6 0 11 -4 11 -10z m-950 -240 c0 -5 -5 -10
-11 -10 -5 0 -7 5 -4 10 3 6 8 10 11 10 2 0 4 -4 4 -10z m37 -62 c-3 -8 -6 -5
-6 6 -1 11 2 17 5 13 3 -3 4 -12 1 -19z m203 -122 c0 -2 -7 -7 -16 -10 -8 -3
-12 -2 -9 4 6 10 25 14 25 6z"/>
<path d="M9090 11344 c-201 -34 -278 -51 -350 -74 -97 -30 -212 -81 -238 -104
-13 -11 -29 -21 -35 -21 -7 0 -38 -16 -71 -34 -58 -34 -58 -34 -35 -48 18 -11
19 -13 4 -8 -53 18 -59 19 -52 2 4 -11 2 -14 -9 -10 -17 6 -46 -15 -38 -28 3
-5 -2 -6 -10 -3 -12 5 -69 -29 -96 -56 -3 -3 -27 -23 -55 -45 -62 -50 -178
-163 -240 -234 -36 -41 -44 -56 -33 -62 7 -5 10 -9 6 -10 -5 -1 -12 -3 -18 -4
-5 -1 -14 -3 -19 -4 -13 -2 -134 -188 -175 -269 -20 -40 -34 -78 -30 -85 4 -7
4 -9 -1 -5 -12 12 -106 -226 -118 -297 -1 -11 -5 -25 -9 -30 -15 -25 -50 -242
-60 -375 -8 -109 -8 -172 2 -255 28 -256 89 -489 168 -645 19 -37 22 -40 17
-15 -27 137 -37 242 -38 395 -2 190 4 332 15 340 3 3 7 25 9 50 1 25 6 50 10
56 5 5 10 26 13 45 9 65 106 329 132 358 8 9 20 10 35 5 13 -4 31 -7 39 -5 8
2 12 -1 7 -5 -13 -13 82 -66 106 -59 14 4 17 3 9 -2 -9 -7 0 -16 29 -33 26
-14 39 -18 35 -9 -4 8 -2 7 6 -2 7 -9 40 -31 73 -49 33 -18 66 -38 74 -44 12
-9 13 -8 6 4 -5 8 6 2 24 -13 19 -15 40 -26 47 -23 8 3 13 1 11 -4 -3 -13 73
-51 87 -43 6 3 8 3 4 -2 -11 -11 50 -47 65 -39 7 4 9 3 4 -1 -10 -12 99 -66
120 -59 13 4 14 3 5 -3 -9 -7 0 -16 30 -33 24 -13 38 -17 31 -9 -8 9 -9 20 -3
29 6 8 10 29 10 45 0 17 9 62 19 100 11 38 18 72 15 76 -2 4 -1 9 3 11 5 1 23
33 42 70 18 38 48 88 67 112 l33 44 -32 24 c-18 13 -166 116 -329 228 -164
112 -298 207 -298 211 0 14 79 88 147 138 18 14 29 29 26 34 -3 6 -2 7 4 4 13
-8 55 22 48 34 -3 5 1 6 9 3 19 -7 21 7 4 26 -11 12 -10 12 4 1 14 -10 21 -9
42 4 14 10 26 21 26 26 0 5 7 9 15 9 17 0 119 58 123 71 2 5 9 9 15 9 23 0 96
33 92 41 -3 4 0 11 6 15 8 4 9 3 5 -4 -4 -7 -4 -12 0 -12 7 0 170 62 214 82
14 6 34 13 45 15 11 2 31 7 45 12 14 6 45 13 70 17 25 3 49 9 54 12 14 8 63
10 74 3 7 -5 43 -608 42 -726 0 -19 7 -20 133 -20 74 -1 155 -7 185 -14 29 -7
55 -12 57 -10 4 4 45 691 45 752 0 29 4 35 25 39 14 3 25 1 25 -3 0 -5 13 -9
30 -9 16 0 76 -9 132 -21 57 -11 110 -21 118 -21 8 -1 17 -4 20 -7 3 -4 43
-19 89 -34 47 -16 103 -38 125 -49 23 -12 42 -20 44 -19 1 1 15 -5 31 -14 23
-11 31 -12 34 -2 4 8 6 7 6 -3 2 -20 85 -61 108 -54 14 5 15 4 4 -4 -11 -8
-10 -12 8 -21 12 -7 27 -9 34 -5 6 4 9 4 5 -1 -8 -9 70 -75 89 -75 6 0 13 -3
15 -8 2 -4 22 -22 46 -40 23 -19 42 -39 42 -46 0 -10 -175 -147 -280 -218 -14
-10 -57 -41 -97 -70 -39 -29 -141 -104 -227 -167 l-155 -113 48 -63 c27 -34
57 -81 67 -103 15 -32 23 -40 37 -36 10 3 81 43 157 88 75 46 144 86 153 89 8
3 52 28 97 56 45 28 83 51 86 51 2 0 59 33 127 73 122 72 177 101 177 92 0 -9
-36 -41 -70 -62 -19 -12 -44 -30 -55 -40 -11 -10 -39 -31 -63 -46 -23 -15 -40
-32 -37 -37 3 -5 0 -7 -8 -4 -10 3 -14 -1 -14 -12 1 -9 -5 -19 -13 -21 -13 -4
-13 -3 0 6 13 10 13 11 0 11 -8 0 -28 -12 -45 -25 -16 -14 -65 -50 -107 -81
-43 -31 -75 -61 -71 -67 3 -6 1 -7 -6 -3 -14 9 -72 -31 -68 -47 1 -6 -8 -13
-21 -15 -13 -2 -20 -8 -16 -14 5 -7 1 -9 -9 -5 -17 7 -41 -15 -29 -28 4 -5 2
-5 -5 -1 -17 10 -122 -72 -118 -92 15 -83 24 -217 16 -231 -6 -9 -54 -6 -330
24 -166 17 -174 16 -169 -33 3 -20 36 -40 203 -125 110 -56 205 -107 212 -113
9 -9 6 -23 -14 -60 -29 -56 -79 -130 -92 -138 -8 -5 -83 68 -263 256 l-84 87
-26 -33 c-14 -18 -54 -46 -88 -62 l-61 -29 4 -40 c3 -22 19 -127 37 -234 18
-114 27 -198 22 -203 -8 -8 -177 -11 -268 -4 -116 9 -344 135 -406 224 -8 12
-33 42 -56 66 -22 23 -52 66 -66 95 -25 48 -28 51 -49 40 -12 -7 -92 -53 -177
-104 -472 -281 -787 -469 -802 -480 -16 -10 -13 -18 31 -91 66 -110 127 -190
204 -270 37 -38 77 -80 90 -94 54 -57 119 -110 133 -110 14 0 101 64 192 140
12 10 22 16 22 13 0 -3 9 2 19 11 11 10 17 24 14 32 -3 8 0 14 7 14 6 0 8 -5
4 -11 -4 -7 -1 -10 7 -7 8 3 13 10 12 16 -1 5 5 9 15 8 10 0 16 5 14 14 -2 8
0 12 3 8 12 -12 47 12 41 27 -3 10 0 12 11 8 12 -5 14 -3 8 7 -6 9 -4 11 5 5
8 -5 17 -2 24 6 6 8 38 32 71 54 33 22 66 46 73 52 7 7 18 13 24 13 5 0 7 7 4
16 -4 10 -2 13 6 8 6 -4 17 1 24 10 7 10 16 18 21 19 4 1 7 5 5 10 -1 4 5 7
14 7 20 0 84 51 84 67 0 7 6 10 13 8 16 -6 64 34 51 43 -14 9 -65 86 -95 142
-13 25 -24 47 -26 48 -1 2 -15 -4 -32 -14 -16 -10 -27 -22 -24 -27 3 -6 1 -7
-5 -3 -6 3 -53 -19 -104 -50 -148 -90 -151 -92 -185 -110 -18 -9 -30 -21 -26
-27 3 -5 1 -7 -4 -4 -14 9 -325 -178 -315 -188 4 -5 1 -5 -5 -1 -7 4 -36 -9
-65 -29 -54 -36 -68 -41 -68 -26 0 5 114 94 253 197 138 103 315 235 391 292
77 58 146 105 155 106 9 1 21 -16 31 -42 9 -23 20 -39 25 -35 4 4 5 2 1 -4
-10 -19 48 -123 108 -191 70 -81 132 -131 221 -177 42 -21 78 -42 80 -45 2 -4
-2 -128 -10 -276 -7 -148 -17 -338 -21 -423 l-7 -153 204 5 c112 3 215 8 228
12 23 8 24 10 18 94 -4 47 -9 147 -12 221 -3 74 -8 152 -11 172 -8 53 -16 184
-15 242 1 27 -3 54 -9 61 -7 8 -6 12 3 12 24 1 134 36 194 63 73 33 130 71
198 134 30 28 52 41 56 34 4 -6 12 -7 18 -4 6 4 11 4 10 -1 -3 -20 2 -27 11
-13 8 13 10 13 10 -2 0 -10 10 -23 23 -29 12 -7 24 -15 27 -18 5 -7 136 -101
211 -151 115 -78 197 -136 223 -157 16 -13 35 -22 43 -19 8 3 11 2 8 -4 -3 -5
5 -14 17 -21 13 -7 25 -15 28 -19 3 -3 16 -14 29 -23 32 -22 47 -13 122 78 41
50 69 75 83 75 15 0 36 24 78 88 120 185 146 242 108 242 -6 0 -27 11 -48 23
-34 22 -153 88 -327 182 -38 21 -104 57 -145 80 -73 42 -120 67 -267 147 -39
21 -76 45 -83 53 -6 7 -13 37 -15 66 -4 45 -11 75 -33 139 -3 8 -7 24 -9 35
-2 10 -8 22 -14 26 -11 7 15 39 32 39 6 0 7 5 3 12 -4 6 -3 8 4 4 11 -7 132
61 132 75 0 5 6 9 13 9 13 0 67 29 172 91 28 16 83 48 123 71 54 30 70 43 60
50 -9 6 -6 7 8 3 13 -3 28 0 35 8 8 7 22 16 31 20 10 3 43 22 73 42 31 19 58
35 61 35 14 0 244 144 244 153 0 5 7 3 17 -4 19 -16 63 -111 104 -224 21 -58
28 -69 23 -40 -3 22 -6 47 -6 55 0 8 -2 22 -5 30 -4 8 -7 26 -9 40 -3 40 -14
91 -29 140 -7 25 -18 66 -25 93 -7 26 -17 47 -22 47 -5 0 -6 4 -3 10 3 5 -1
27 -10 47 -37 84 -45 103 -46 111 -12 50 -125 249 -215 377 -46 65 -95 116
-105 109 -5 -3 -6 1 -3 9 5 14 -67 87 -85 87 -5 0 -27 17 -48 38 -61 59 -91
81 -205 159 -141 96 -254 155 -282 148 -16 -5 -17 -4 -7 3 11 8 7 13 -21 25
-19 8 -46 18 -59 22 -13 4 -37 13 -54 20 -64 27 -124 45 -235 69 -279 61 -471
70 -700 30z m547 -20 c-3 -3 -12 -4 -19 -1 -8 3 -5 6 6 6 11 1 17 -2 13 -5z
m-857 -79 c-7 -8 -18 -15 -24 -14 -7 0 -6 2 2 6 6 2 10 9 6 14 -3 5 2 9 12 9
13 0 14 -3 4 -15z m596 -392 c-3 -219 -9 -446 -12 -505 l-7 -108 -48 0 c-32 0
-49 4 -49 13 0 6 -7 131 -15 276 -8 146 -17 367 -21 493 l-7 228 83 0 83 0 -7
-397z m751 341 c-3 -3 -12 -4 -19 -1 -8 3 -5 6 6 6 11 1 17 -2 13 -5z m-1687
-94 c-8 -5 -17 -7 -19 -4 -3 3 1 9 9 14 8 5 17 7 19 4 3 -3 -1 -9 -9 -14z m20
-30 c0 -5 -4 -10 -10 -10 -5 0 -10 5 -10 10 0 6 5 10 10 10 6 0 10 -4 10 -10z
m-173 -86 c-3 -3 -12 -4 -19 -1 -8 3 -5 6 6 6 11 1 17 -2 13 -5z m786 -31 c-7
-2 -19 -2 -25 0 -7 3 -2 5 12 5 14 0 19 -2 13 -5z m787 3 c0 -2 -7 -7 -16 -10
-8 -3 -12 -2 -9 4 6 10 25 14 25 6z m127 -12 c-3 -3 -12 -4 -19 -1 -8 3 -5 6
6 6 11 1 17 -2 13 -5z m10 -30 c-3 -3 -12 -4 -19 -1 -8 3 -5 6 6 6 11 1 17 -2
13 -5z m-390 -56 c-3 -7 -5 -2 -5 12 0 14 2 19 5 13 2 -7 2 -19 0 -25z m493
22 c0 -5 -5 -10 -11 -10 -5 0 -7 5 -4 10 3 6 8 10 11 10 2 0 4 -4 4 -10z
m-2035 -58 c-3 -3 -11 0 -18 7 -9 10 -8 11 6 5 10 -3 15 -9 12 -12z m2162 2
c-3 -3 -12 -4 -19 -1 -8 3 -5 6 6 6 11 1 17 -2 13 -5z m-610 -81 c-3 -10 -5
-2 -5 17 0 19 2 27 5 18 2 -10 2 -26 0 -35z m758 17 c3 -6 -1 -7 -9 -4 -18 7
-21 14 -7 14 6 0 13 -4 16 -10z m388 -17 c-7 -2 -19 -2 -25 0 -7 3 -2 5 12 5
14 0 19 -2 13 -5z m-2843 -43 c0 -5 -5 -10 -11 -10 -5 0 -7 5 -4 10 3 6 8 10
11 10 2 0 4 -4 4 -10z m253 -145 c-3 -9 -8 -14 -10 -11 -3 3 -2 9 2 15 9 16
15 13 8 -4z m2677 -77 l42 -63 -34 -28 c-28 -24 -134 -92 -484 -312 -35 -22
-122 -77 -194 -122 -72 -46 -135 -83 -140 -83 -5 0 -17 12 -27 28 -10 15 -22
30 -28 35 -12 9 11 30 126 113 144 105 592 432 634 463 22 16 45 30 52 30 6 1
30 -27 53 -61z m-2718 -158 c368 -248 536 -363 554 -382 15 -15 15 -19 -5 -52
-13 -20 -28 -36 -35 -36 -10 0 -221 119 -368 209 -14 9 -68 40 -120 70 -120
69 -349 211 -366 226 -11 10 -7 23 25 74 21 33 43 61 50 61 6 0 126 -77 265
-170z m2844 -102 c46 -52 112 -174 101 -185 -4 -3 -10 3 -14 13 -4 10 -17 30
-30 44 -13 14 -23 28 -23 32 0 3 -6 13 -13 20 -23 23 -57 76 -57 87 0 18 15
13 36 -11z m-76 -42 c0 -2 -7 -7 -16 -10 -8 -3 -12 -2 -9 4 6 10 25 14 25 6z
m273 -146 c-3 -12 -8 -19 -11 -16 -5 6 5 36 12 36 2 0 2 -9 -1 -20z m-510 -97
c-7 -2 -19 -2 -25 0 -7 3 -2 5 12 5 14 0 19 -2 13 -5z m525 -38 c-3 -3 -9 2
-12 12 -6 14 -5 15 5 6 7 -7 10 -15 7 -18z m-3458 1 c0 -3 -4 -8 -10 -11 -5
-3 -10 -1 -10 4 0 6 5 11 10 11 6 0 10 -2 10 -4z m70 -6 c0 -5 -5 -10 -11 -10
-5 0 -7 5 -4 10 3 6 8 10 11 10 2 0 4 -4 4 -10z m-293 -32 c-3 -8 -6 -5 -6 6
-1 11 2 17 5 13 3 -3 4 -12 1 -19z m3378 -18 c-3 -5 -12 -10 -18 -10 -7 0 -6
4 3 10 19 12 23 12 15 0z m-2915 -55 c0 -5 -5 -3 -10 5 -5 8 -10 20 -10 25 0
6 5 3 10 -5 5 -8 10 -19 10 -25z m2417 -1 c-3 -3 -12 -4 -19 -1 -8 3 -5 6 6 6
11 1 17 -2 13 -5z m-2262 -64 c3 -5 2 -10 -4 -10 -5 0 -13 5 -16 10 -3 6 -2
10 4 10 5 0 13 -4 16 -10z m2184 7 c-2 -1 -13 -9 -24 -17 -19 -14 -19 -14 -6
3 7 9 18 17 24 17 6 0 8 -1 6 -3z m-1729 -78 c0 -6 -4 -7 -10 -4 -5 3 -10 11
-10 16 0 6 5 7 10 4 6 -3 10 -11 10 -16z m21 -2 c-10 -9 -11 -8 -5 6 3 10 9
15 12 12 3 -3 0 -11 -7 -18z m-201 -77 c0 -5 -8 -10 -17 -10 -15 0 -16 2 -3
10 19 12 20 12 20 0z m1810 -140 c-20 -13 -33 -13 -25 0 3 6 14 10 23 10 15 0
15 -2 2 -10z m-2683 -52 c-3 -8 -6 -5 -6 6 -1 11 2 17 5 13 3 -3 4 -12 1 -19z
m2603 -102 c0 -3 -4 -8 -10 -11 -5 -3 -10 -1 -10 4 0 6 5 11 10 11 6 0 10 -2
10 -4z m-2593 -128 c-2 -13 -4 -3 -4 22 0 25 2 35 4 23 2 -13 2 -33 0 -45z
m2744 -179 c371 -205 417 -230 557 -306 105 -58 141 -82 137 -93 -12 -32 -71
-122 -82 -127 -7 -3 -29 7 -50 22 -21 14 -100 65 -175 113 -181 114 -611 393
-622 403 -8 7 37 89 48 89 2 0 86 -46 187 -101z m-1611 -1 c-1 -7 -65 -57
-143 -110 -78 -53 -167 -114 -197 -135 -30 -22 -107 -75 -170 -118 -63 -43
-137 -95 -165 -114 -98 -69 -147 -101 -155 -101 -9 0 -90 122 -90 136 0 7 137
92 329 204 14 9 67 40 116 69 50 30 99 59 110 65 11 6 76 45 145 86 187 111
170 105 197 65 13 -19 23 -40 23 -47z m-1133 40 c-3 -7 -5 -2 -5 12 0 14 2 19
5 13 2 -7 2 -19 0 -25z m30 -320 c-3 -8 -6 -5 -6 6 -1 11 2 17 5 13 3 -3 4
-12 1 -19z m1390 -90 c-3 -8 -6 -5 -6 6 -1 11 2 17 5 13 3 -3 4 -12 1 -19z
m407 -100 c3 -62 9 -289 12 -504 l7 -391 -78 -8 c-47 -4 -81 -3 -87 3 -9 9 18
668 38 930 l6 82 48 0 48 0 6 -112z m871 -18 c-3 -5 -12 -10 -18 -10 -7 0 -6
4 3 10 19 12 23 12 15 0z m-1942 -54 c4 -10 1 -13 -8 -9 -8 3 -12 9 -9 14 7
12 11 11 17 -5z m82 4 c-3 -5 -12 -10 -18 -10 -7 0 -6 4 3 10 19 12 23 12 15
0z m1370 -30 c3 -5 1 -10 -4 -10 -6 0 -11 5 -11 10 0 6 2 10 4 10 3 0 8 -4 11
-10z m-1680 -130 c3 -6 -1 -7 -9 -4 -18 7 -21 14 -7 14 6 0 13 -4 16 -10z
m2672 -128 c0 -10 -7 -24 -14 -31 -16 -15 -16 -9 -1 24 13 30 17 31 15 7z
m-37 -7 c-7 -9 -15 -13 -19 -10 -3 3 1 10 9 15 21 14 24 12 10 -5z m-2590
-146 c0 -5 -4 -9 -10 -9 -5 0 -10 5 -10 11 0 5 -5 7 -12 3 -7 -4 -8 -3 -4 4 7
12 36 5 36 -9z"/>
<path d="M6171 11221 c-42 -72 -61 -113 -61 -135 0 -7 48 -39 108 -70 59 -32
114 -64 122 -71 14 -12 72 -44 285 -160 396 -215 368 -194 341 -260 -17 -40
-33 -43 -69 -15 -14 11 -35 20 -46 20 -12 0 -21 5 -21 10 0 6 -17 18 -37 28
-21 9 -40 20 -43 23 -3 3 -27 16 -55 29 -27 13 -53 28 -56 33 -4 5 -11 1 -17
-9 -6 -10 -14 -15 -18 -11 -5 5 -2 12 5 16 10 6 -7 21 -58 50 -39 23 -71 46
-71 52 0 6 -5 7 -11 4 -5 -4 -19 1 -29 10 -10 9 -24 14 -30 10 -7 -4 -18 2
-26 14 -8 12 -20 21 -26 21 -7 0 -22 10 -35 22 -20 19 -25 20 -33 8 -6 -8 -7
-22 -4 -30 3 -8 2 -11 -2 -7 -7 7 -45 -47 -48 -69 -1 -7 -7 -18 -12 -25 -20
-25 -44 -81 -38 -90 2 -5 26 -19 52 -32 26 -13 65 -34 87 -47 22 -12 76 -42
120 -66 44 -24 87 -49 95 -54 33 -22 81 -40 92 -34 6 4 8 3 4 -4 -6 -10 30
-33 154 -98 30 -16 58 -33 61 -38 4 -5 14 -6 24 -3 9 4 13 3 10 -3 -5 -8 33
-36 39 -28 1 2 22 56 46 121 24 65 49 117 56 117 7 0 41 55 77 123 71 136 146
255 231 366 31 41 56 77 56 81 0 3 -12 13 -28 22 l-27 16 -125 -155 c-68 -85
-130 -159 -137 -165 -9 -7 -47 14 -140 78 -70 49 -182 125 -248 169 -66 44
-125 84 -131 90 -6 5 -30 21 -52 35 -23 14 -92 60 -153 103 -62 42 -118 77
-125 77 -7 0 -31 -31 -53 -69z m147 -456 c-3 -3 -9 2 -12 12 -6 14 -5 15 5 6
7 -7 10 -15 7 -18z m-8 -23 c0 -4 -9 -8 -19 -8 -15 0 -17 3 -9 13 10 12 28 9
28 -5z m-90 -106 c0 -2 -7 -7 -16 -10 -8 -3 -12 -2 -9 4 6 10 25 14 25 6z m41
-26 c10 0 19 -4 19 -9 0 -10 -58 3 -69 15 -3 4 2 4 12 1 10 -4 27 -7 38 -7z
m129 -80 c8 -5 12 -11 9 -14 -3 -3 -14 1 -25 9 -21 16 -8 20 16 5z m324 -156
c3 -8 2 -12 -4 -9 -6 3 -10 10 -10 16 0 14 7 11 14 -7z m206 -139 c0 -5 -5 -3
-10 5 -5 8 -10 20 -10 25 0 6 5 3 10 -5 5 -8 10 -19 10 -25z"/>
<path d="M15390 11123 c-96 -30 -197 -60 -225 -68 -54 -14 -533 -156 -780
-231 -82 -24 -179 -53 -215 -64 -163 -48 -772 -232 -837 -252 -40 -13 -73 -29
-73 -35 0 -7 18 -81 39 -165 22 -84 49 -207 61 -273 13 -66 24 -121 25 -123 6
-8 678 101 1046 169 388 72 893 175 1114 229 44 10 105 24 135 31 30 6 61 13
68 15 6 2 12 16 12 32 0 29 -43 248 -79 397 -35 147 -100 378 -109 386 -4 4
-86 -18 -182 -48z"/>
<path d="M18412 11001 c-71 -25 -86 -40 -77 -80 4 -18 10 -30 13 -29 4 2 33
16 65 31 136 63 294 16 380 -113 17 -24 17 -23 17 37 0 59 -1 62 -39 92 -67
53 -127 74 -221 78 -65 3 -98 -1 -138 -16z"/>
<path d="M18779 10486 c-29 -48 -104 -101 -163 -117 -41 -11 -145 -7 -178 6
-15 6 -18 1 -18 -33 0 -44 -5 -42 97 -56 72 -10 221 44 273 99 17 19 21 32 18
82 l-3 60 -26 -41z"/>
<path d="M16950 9853 c-232 -38 -430 -217 -500 -451 -32 -105 -25 -275 14
-377 140 -363 544 -513 891 -332 89 47 201 164 247 258 50 101 68 176 68 281
0 115 -14 176 -62 278 -79 164 -247 298 -424 335 -65 14 -177 18 -234 8z m210
-134 c119 -27 246 -119 309 -223 63 -105 87 -258 60 -376 -39 -171 -186 -318
-364 -365 -265 -69 -554 114 -605 384 -48 257 107 506 360 577 56 15 180 17
240 3z"/>
<path d="M1281 9825 c-228 -52 -406 -225 -466 -453 -19 -76 -19 -220 0 -297
56 -221 232 -395 454 -451 97 -24 253 -16 351 19 346 123 509 528 344 855 -45
88 -133 187 -217 242 -125 82 -322 118 -466 85z m345 -159 c103 -51 179 -127
231 -232 l38 -78 0 -135 0 -136 -38 -77 c-88 -180 -247 -278 -451 -278 -277 1
-487 213 -487 492 0 220 134 405 346 474 26 9 82 13 161 11 117 -2 122 -3 200
-41z"/>
<path d="M11878 9250 c-4 -19 -10 -75 -14 -125 -3 -49 -8 -93 -10 -97 -2 -3
-15 -59 -28 -125 -34 -162 -53 -235 -71 -269 -8 -16 -18 -46 -21 -66 -7 -39
-13 -45 -29 -29 -6 5 -50 23 -100 40 -49 16 -155 52 -235 80 -79 28 -145 51
-146 51 -2 0 -34 -64 -73 -142 -38 -79 -84 -166 -101 -195 l-31 -52 73 -54
c40 -29 111 -80 158 -112 47 -32 99 -68 115 -79 17 -11 40 -29 52 -40 l22 -19
-27 -36 c-14 -20 -43 -57 -64 -82 -21 -26 -44 -57 -51 -70 -26 -49 -73 -108
-94 -120 -20 -11 -28 -6 -90 53 -37 35 -99 93 -138 129 -38 35 -72 66 -75 69
-3 3 -27 25 -52 49 l-47 44 -85 -81 c-184 -176 -427 -326 -663 -408 -43 -15
-82 -31 -87 -35 -8 -7 19 -133 80 -380 13 -53 26 -104 30 -112 8 -21 -17 -32
-122 -57 -163 -39 -167 -40 -464 -60 -163 -11 -277 -10 -459 7 -52 4 -72 3
-67 -5 3 -6 2 -13 -3 -17 -6 -3 -8 3 -6 15 3 16 -2 20 -23 21 -51 3 -179 29
-266 55 -59 17 -59 17 -51 4 3 -5 -1 -10 -9 -10 -9 0 -16 7 -16 15 0 8 -3 15
-7 16 -26 2 -52 10 -88 25 -63 26 -77 31 -130 50 -66 24 -352 169 -372 190 -9
8 -22 13 -30 10 -8 -3 -12 -2 -9 3 3 5 0 11 -7 14 -6 3 -49 32 -95 66 -45 34
-87 59 -92 56 -6 -3 -7 1 -4 9 6 15 -6 21 -31 16 -5 -1 -7 1 -3 5 4 4 1 13 -5
20 -9 10 -15 10 -26 1 -12 -8 -13 -8 -7 2 10 16 -119 147 -135 136 -8 -4 -9
-3 -5 4 9 15 -42 64 -57 55 -5 -3 -7 -2 -4 4 4 5 -3 19 -13 31 -11 12 -20 26
-20 32 0 5 -34 54 -76 107 -93 120 -186 260 -249 375 l-47 88 -29 -16 c-34
-17 -33 -30 6 -99 13 -22 53 -98 89 -170 62 -121 65 -131 49 -143 -10 -8 -202
-123 -428 -257 -225 -134 -416 -248 -424 -252 -10 -6 -2 -25 37 -83 28 -41 63
-87 79 -103 l30 -27 113 82 c62 46 171 126 241 178 70 52 171 127 224 165 52
39 101 75 108 80 7 6 40 30 75 55 l63 43 29 -34 c16 -19 29 -40 30 -46 0 -7 1
-16 3 -20 1 -3 -8 -7 -21 -8 -12 -1 -32 -11 -45 -22 -33 -30 -192 -150 -216
-163 -12 -6 -21 -18 -21 -26 0 -8 -4 -13 -10 -9 -13 8 -50 -17 -50 -33 0 -7
-5 -10 -11 -6 -6 3 -25 -7 -42 -23 -18 -17 -54 -45 -82 -64 -27 -19 -76 -56
-110 -82 -33 -27 -77 -57 -97 -68 -21 -11 -38 -24 -38 -29 0 -6 -6 -10 -14
-10 -8 0 -22 -10 -30 -22 -9 -12 -16 -19 -16 -15 0 4 -14 -6 -30 -22 -50 -47
-67 -46 -116 7 -24 26 -44 50 -44 55 0 4 -5 7 -11 7 -9 0 23 -54 41 -70 3 -3
11 -18 18 -33 7 -17 17 -25 24 -21 7 4 8 3 4 -4 -9 -14 124 -195 193 -263 18
-18 8 -22 110 56 22 17 58 43 80 58 23 16 41 35 41 43 0 8 4 13 10 9 15 -9
253 162 244 176 -3 5 1 7 8 4 7 -3 27 7 43 22 17 16 40 33 50 39 11 7 19 20
17 30 -2 15 -1 16 6 5 8 -11 17 -8 48 15 89 66 149 118 146 126 -1 5 2 7 8 3
6 -3 42 16 80 44 38 28 72 51 74 51 3 0 33 -29 67 -65 34 -35 67 -61 72 -58 6
3 7 2 4 -4 -3 -5 29 -41 72 -79 125 -110 120 -107 139 -92 15 11 15 11 4 -4
-14 -18 0 -34 20 -22 6 4 8 3 4 -4 -8 -14 110 -98 131 -94 9 2 12 -1 8 -7 -3
-6 1 -11 11 -11 10 0 14 -3 11 -7 -4 -3 3 -11 16 -18 128 -70 183 -95 196 -90
8 3 12 3 8 -1 -8 -8 136 -84 159 -84 7 0 14 3 17 8 2 4 2 2 1 -5 -4 -15 27
-25 52 -17 14 4 16 3 5 -4 -12 -9 46 -33 139 -57 14 -3 48 -12 77 -20 70 -19
104 -27 132 -28 27 -2 27 -2 34 118 l3 60 45 2 c24 2 123 -7 219 -20 l175 -22
-2 -125 c-1 -69 -7 -224 -13 -345 -6 -121 -13 -296 -17 -389 l-6 -169 109 6
c159 8 148 -5 140 156 -14 297 -27 544 -36 700 -6 91 -7 168 -3 172 5 3 29 10
56 13 44 7 47 6 48 -16 0 -13 2 -32 4 -43 1 -11 6 -92 10 -180 3 -88 12 -266
18 -395 7 -129 12 -291 12 -360 l0 -125 -110 -13 c-67 -7 -199 -11 -336 -10
l-227 3 -6 -59 c-3 -32 -6 -87 -6 -122 l0 -63 33 -5 c86 -14 403 -24 512 -16
163 11 226 17 229 22 2 1 -1 62 -5 133 -5 72 -10 180 -13 240 -21 466 -28 605
-34 635 -4 19 -6 70 -4 113 3 69 5 77 23 77 21 0 133 22 239 46 76 18 300 92
316 106 7 5 22 11 35 13 12 3 25 8 28 12 3 5 13 9 21 11 8 1 28 8 43 14 22 8
25 13 15 20 -9 7 -8 8 5 4 15 -5 89 28 161 71 4 3 2 10 -5 15 -10 7 -8 8 6 4
25 -7 138 60 129 76 -5 7 -2 8 5 4 18 -12 91 42 84 62 -5 12 -2 14 11 9 19 -7
71 25 59 37 -3 3 0 6 8 6 8 0 25 9 39 20 21 17 23 21 10 31 -13 9 -12 10 3 5
21 -7 111 60 101 75 -3 5 -1 8 4 7 13 -4 132 117 132 133 0 7 3 9 7 6 9 -10
36 31 28 43 -4 6 1 7 11 3 14 -5 16 -3 11 11 -6 14 -3 16 16 10 12 -4 34 -8
50 -9 30 -2 44 -11 33 -22 -4 -4 -11 -1 -16 7 -5 8 -12 12 -15 8 -10 -10 88
-78 103 -73 7 3 10 1 7 -5 -3 -5 5 -14 17 -21 13 -7 25 -15 28 -18 3 -4 39
-29 80 -56 41 -28 77 -52 80 -55 12 -14 142 -100 150 -100 4 0 10 -4 12 -8 5
-13 243 -172 256 -172 7 0 12 -4 12 -9 0 -14 150 -112 162 -105 6 4 8 3 5 -3
-4 -6 0 -17 9 -24 14 -11 18 -10 30 6 7 11 18 26 24 33 6 7 8 17 4 24 -4 6 -3
8 4 4 13 -8 56 50 47 64 -3 6 1 7 9 4 10 -4 16 -1 16 9 0 8 3 17 8 19 6 3 27
32 110 160 14 22 21 42 16 50 -4 7 -4 10 1 6 14 -13 37 30 30 55 -5 16 -4 18
3 8 8 -11 13 -7 26 18 9 17 14 37 10 43 -4 6 -3 8 2 5 8 -4 47 61 81 135 4 8
-93 68 -110 68 -19 0 -40 -37 -24 -43 8 -4 7 -6 -3 -6 -8 -1 -33 -29 -55 -64
-22 -34 -42 -64 -45 -67 -4 -3 -26 -34 -50 -70 -24 -36 -49 -72 -56 -80 -50
-58 -73 -80 -82 -80 -6 0 -13 -6 -15 -12 -3 -7 -6 -2 -6 11 -1 13 -4 22 -7 18
-8 -7 -104 52 -104 64 0 5 -7 9 -15 9 -8 0 -15 4 -15 8 0 9 -62 48 -72 44 -4
-1 -20 11 -36 26 -43 39 -60 52 -70 52 -5 0 -17 9 -27 20 -10 11 -24 20 -32
20 -8 0 -26 11 -41 25 -15 14 -33 23 -40 20 -7 -3 -10 0 -7 5 3 6 -2 13 -12
17 -10 4 -20 9 -23 13 -9 11 -75 55 -83 55 -4 0 -11 6 -16 13 -5 8 -12 14 -17
14 -21 1 -34 11 -34 25 0 10 -7 14 -19 10 -13 -3 -21 1 -24 14 -3 10 -22 26
-43 36 -21 10 -48 28 -60 41 -13 12 -30 22 -39 22 -8 0 -15 4 -15 8 0 5 -11
15 -25 22 -32 17 -31 27 5 69 25 30 32 33 52 24 19 -9 173 -113 383 -260 22
-15 89 -62 150 -104 60 -41 151 -103 200 -138 l90 -62 29 33 c35 40 116 163
116 175 0 5 -21 21 -47 34 -27 14 -91 49 -143 79 -52 29 -117 65 -145 80 -27
15 -133 73 -235 130 -102 56 -213 117 -247 136 -34 19 -65 38 -68 43 -3 5 30
83 73 173 43 89 84 178 91 196 16 37 13 36 52 17 26 -14 30 -14 35 0 3 8 4 21
1 29 -3 8 -2 16 3 18 13 4 55 180 74 308 20 132 30 401 19 500 -8 65 -10 70
-15 40z m-31 -632 c-3 -8 -6 -5 -6 6 -1 11 2 17 5 13 3 -3 4 -12 1 -19z m-90
-80 c-3 -8 -6 -5 -6 6 -1 11 2 17 5 13 3 -3 4 -12 1 -19z m50 -90 c-3 -8 -6
-5 -6 6 -1 11 2 17 5 13 3 -3 4 -12 1 -19z m-497 -658 c0 -5 -4 -10 -10 -10
-5 0 -10 5 -10 10 0 6 5 10 10 10 6 0 10 -4 10 -10z m-3705 -220 c3 -5 1 -10
-4 -10 -6 0 -11 5 -11 10 0 6 2 10 4 10 3 0 8 -4 11 -10z m3408 -55 c-3 -9 -8
-14 -10 -11 -3 3 -2 9 2 15 9 16 15 13 8 -4z m1657 -19 c0 -2 -7 -7 -16 -10
-8 -3 -12 -2 -9 4 6 10 25 14 25 6z m-935 -36 c-3 -5 -12 -10 -18 -10 -7 0 -6
4 3 10 19 12 23 12 15 0z m-290 -10 c3 -5 1 -10 -4 -10 -6 0 -11 5 -11 10 0 6
2 10 4 10 3 0 8 -4 11 -10z m330 0 c3 -5 1 -10 -4 -10 -6 0 -11 5 -11 10 0 6
2 10 4 10 3 0 8 -4 11 -10z m-4205 -4 c0 -2 -7 -7 -16 -10 -8 -3 -12 -2 -9 4
6 10 25 14 25 6z m3927 -12 c-3 -3 -12 -4 -19 -1 -8 3 -5 6 6 6 11 1 17 -2 13
-5z m1160 -16 c-3 -8 -6 -5 -6 6 -1 11 2 17 5 13 3 -3 4 -12 1 -19z m-116 -31
c-6 -8 -8 -17 -4 -20 3 -4 1 -7 -5 -7 -15 0 -15 13 0 28 16 16 23 15 9 -1z
m31 -139 c-6 -6 -7 0 -4 19 5 21 7 23 10 9 2 -10 0 -22 -6 -28z m-482 2 c0 -5
-5 -10 -11 -10 -5 0 -7 5 -4 10 3 6 8 10 11 10 2 0 4 -4 4 -10z m-4770 -18 c0
-4 -10 -13 -22 -21 -23 -14 -23 -14 -4 8 20 22 26 25 26 13z m4550 -32 c8 -5
11 -10 5 -10 -5 0 -17 5 -25 10 -8 5 -10 10 -5 10 6 0 17 -5 25 -10z m-3893
-6 c-3 -3 -12 -4 -19 -1 -8 3 -5 6 6 6 11 1 17 -2 13 -5z m4523 -109 c0 -5 -5
-3 -10 5 -5 8 -10 20 -10 25 0 6 5 3 10 -5 5 -8 10 -19 10 -25z m-4445 5 c3
-5 1 -10 -4 -10 -6 0 -11 5 -11 10 0 6 2 10 4 10 3 0 8 -4 11 -10z m2775 0 c0
-5 -2 -10 -4 -10 -3 0 -8 5 -11 10 -3 6 -1 10 4 10 6 0 11 -4 11 -10z m-2475
-28 c-3 -3 -11 0 -18 7 -9 10 -8 11 6 5 10 -3 15 -9 12 -12z m4064 -26 c7 -8
8 -17 3 -20 -6 -3 -12 3 -15 14 -6 24 -4 25 12 6z m-3854 -36 c-3 -5 -1 -10 6
-10 7 0 10 -3 6 -6 -9 -9 -28 6 -22 17 4 5 8 9 11 9 3 0 2 -4 -1 -10z m1515
-10 c0 -5 -5 -10 -11 -10 -5 0 -7 5 -4 10 3 6 8 10 11 10 2 0 4 -4 4 -10z
m2310 -55 c-7 -9 -15 -13 -19 -10 -3 3 1 10 9 15 21 14 24 12 10 -5z m-3557
-2 c-7 -2 -19 -2 -25 0 -7 3 -2 5 12 5 14 0 19 -2 13 -5z m3504 -35 c-3 -8 -6
-5 -6 6 -1 11 2 17 5 13 3 -3 4 -12 1 -19z m-5522 -28 c3 -5 2 -10 -4 -10 -5
0 -13 5 -16 10 -3 6 -2 10 4 10 5 0 13 -4 16 -10z m3410 -70 c3 -5 2 -10 -4
-10 -5 0 -13 5 -16 10 -3 6 -2 10 4 10 5 0 13 -4 16 -10z m-1420 -80 c3 -6 -1
-7 -9 -4 -18 7 -21 14 -7 14 6 0 13 -4 16 -10z m1155 -10 c0 -5 -4 -10 -10
-10 -5 0 -10 5 -10 10 0 6 5 10 10 10 6 0 10 -4 10 -10z m-173 -452 c-3 -8 -6
-5 -6 6 -1 11 2 17 5 13 3 -3 4 -12 1 -19z m-10 -365 c-3 -10 -5 -4 -5 12 0
17 2 24 5 18 2 -7 2 -21 0 -30z m-424 -230 c-7 -2 -19 -2 -25 0 -7 3 -2 5 12
5 14 0 19 -2 13 -5z m-256 -75 c-3 -8 -6 -5 -6 6 -1 11 2 17 5 13 3 -3 4 -12
1 -19z m-10 -95 c-3 -10 -5 -4 -5 12 0 17 2 24 5 18 2 -7 2 -21 0 -30z m20
-35 c-3 -7 -5 -2 -5 12 0 14 2 19 5 13 2 -7 2 -19 0 -25z"/>
<path d="M15951 8953 c-1 -34 4 -65 9 -68 12 -7 12 68 0 105 -6 19 -8 9 -9
-37z"/>
<path d="M15931 8874 c0 -11 3 -14 6 -6 3 7 2 16 -1 19 -3 4 -6 -2 -5 -13z"/>
<path d="M15946 8738 c-4 -43 -11 -80 -14 -82 -4 -2 -7 -28 -6 -58 1 -29 -1
-47 -3 -40 -12 33 -53 -3 -53 -47 0 -12 -4 -21 -10 -21 -13 0 -721 -710 -716
-719 3 -4 1 -12 -2 -18 -6 -9 -19 -9 -47 -2 -22 5 -51 12 -65 15 -14 3 -35 15
-48 27 -20 19 -21 23 -8 33 20 14 20 24 1 24 -8 0 -15 -5 -15 -11 0 -7 -10 -9
-27 -5 l-28 7 25 -21 25 -20 -27 0 c-38 0 -189 29 -210 41 -10 5 -28 9 -41 9
-13 0 -28 5 -33 10 -6 6 -35 15 -65 20 -84 15 -137 28 -234 55 -49 14 -112 30
-140 36 -46 10 -214 55 -713 190 -100 27 -188 49 -196 49 -8 0 -29 -51 -55
-132 -132 -413 -307 -774 -527 -1090 -30 -43 -54 -81 -54 -86 0 -8 199 -200
284 -274 17 -16 89 -84 160 -153 70 -69 132 -125 137 -125 5 0 9 -6 9 -14 0
-7 15 -24 34 -37 19 -13 32 -29 29 -36 -4 -9 0 -11 11 -7 20 8 21 -6 1 -32 -8
-10 -15 -27 -15 -36 0 -14 8 -18 40 -16 36 1 40 4 34 22 -6 21 -6 21 17 -1 80
-72 90 -83 76 -83 -8 0 -18 -6 -20 -12 -4 -10 -8 -9 -16 2 -5 8 -13 11 -18 7
-4 -5 -1 -12 7 -17 11 -7 -1 -23 -53 -73 -66 -64 -91 -82 -114 -78 -6 1 -15
-4 -19 -11 -4 -7 -4 -10 1 -6 10 10 35 -10 35 -28 0 -8 -6 -14 -12 -14 -16 1
-68 45 -68 58 0 5 -9 17 -20 27 -11 10 -20 24 -20 32 0 7 9 13 20 13 11 0 20
5 20 10 0 6 -17 10 -37 10 -21 0 -51 8 -68 19 -36 22 -234 219 -395 392 -63
68 -138 147 -165 177 l-51 54 -116 -129 c-411 -454 -848 -768 -1442 -1037 -43
-20 -84 -36 -92 -36 -17 0 -17 -22 -4 -110 11 -71 36 -254 50 -365 24 -191 91
-596 141 -855 11 -58 23 -123 26 -145 3 -22 9 -47 13 -55 4 -8 11 -35 14 -60
6 -39 13 -76 32 -167 2 -13 0 -23 -4 -23 -5 0 -15 27 -22 61 -8 37 -17 56 -22
51 -6 -6 -6 -24 1 -48 15 -53 14 -89 -3 -103 -11 -9 -15 -9 -19 1 -3 8 -9 2
-17 -14 -7 -16 -17 -28 -22 -28 -4 0 -8 -6 -8 -14 0 -21 -27 -40 -33 -24 -3 8
-9 2 -17 -14 -7 -16 -17 -28 -22 -28 -4 0 -8 -6 -8 -14 0 -21 -27 -40 -33 -24
-3 8 -9 2 -17 -14 -7 -16 -17 -28 -22 -28 -4 0 -8 -6 -8 -14 0 -21 -27 -40
-33 -24 -3 8 -9 2 -17 -14 -7 -16 -17 -28 -22 -28 -4 0 -8 -6 -8 -14 0 -21
-27 -40 -33 -24 -3 8 -9 2 -17 -14 -7 -16 -17 -28 -22 -28 -4 0 -8 -6 -8 -14
0 -21 -27 -40 -33 -24 -3 8 -9 2 -17 -14 -7 -16 -17 -28 -22 -28 -4 0 -8 -6
-8 -14 0 -21 -27 -40 -33 -24 -3 8 -9 2 -17 -14 -7 -16 -17 -28 -22 -28 -4 0
-8 -6 -8 -14 0 -21 -27 -40 -33 -24 -3 8 -9 2 -17 -14 -7 -16 -17 -28 -22 -28
-4 0 -8 -6 -8 -14 0 -21 -27 -40 -33 -24 -3 8 -9 2 -17 -14 -7 -16 -17 -28
-22 -28 -4 0 -8 -6 -8 -14 0 -21 -27 -40 -33 -24 -3 8 -9 2 -17 -14 -7 -16
-17 -28 -22 -28 -4 0 -8 -6 -8 -14 0 -21 -27 -40 -33 -24 -3 8 -9 3 -16 -12
-7 -14 -22 -30 -34 -35 -12 -6 -26 -25 -31 -42 -5 -20 -15 -33 -25 -33 -9 0
-23 -5 -31 -11 -12 -8 -9 -9 13 -5 15 4 27 2 27 -3 0 -5 -18 -8 -40 -7 -22 2
-40 -1 -40 -5 0 -5 -7 -9 -16 -9 -8 0 -12 -5 -9 -10 4 -6 11 -7 17 -4 5 4 42
8 80 11 40 2 80 10 91 18 12 8 26 15 32 15 5 0 3 -5 -5 -11 -21 -14 57 -4 275
36 243 45 327 64 342 76 7 6 16 8 21 5 13 -8 349 85 555 155 183 61 375 133
462 173 28 12 77 33 110 47 96 38 488 237 635 323 404 235 777 505 1105 800
95 85 405 393 490 486 100 109 235 268 297 349 15 20 31 41 36 46 5 6 35 46
68 90 423 571 724 1135 952 1785 134 380 250 849 311 1255 24 158 54 451 48
468 -2 6 -7 -23 -11 -65z m-89 -365 c-3 -10 -5 -4 -5 12 0 17 2 24 5 18 2 -7
2 -21 0 -30z m-47 -133 c0 -5 -2 -10 -4 -10 -3 0 -8 5 -11 10 -3 6 -1 10 4 10
6 0 11 -4 11 -10z m-80 -80 c0 -5 -2 -10 -4 -10 -3 0 -8 5 -11 10 -3 6 -1 10
4 10 6 0 11 -4 11 -10z m-80 -80 c0 -5 -2 -10 -4 -10 -3 0 -8 5 -11 10 -3 6
-1 10 4 10 6 0 11 -4 11 -10z m-80 -80 c0 -5 -2 -10 -4 -10 -3 0 -8 5 -11 10
-3 6 -1 10 4 10 6 0 11 -4 11 -10z m-80 -80 c0 -5 -2 -10 -4 -10 -3 0 -8 5
-11 10 -3 6 -1 10 4 10 6 0 11 -4 11 -10z m-80 -80 c0 -5 -2 -10 -4 -10 -3 0
-8 5 -11 10 -3 6 -1 10 4 10 6 0 11 -4 11 -10z m-135 -90 c3 -5 1 -10 -4 -10
-6 0 -11 5 -11 10 0 6 2 10 4 10 3 0 8 -4 11 -10z m-60 -20 c3 -5 1 -10 -4
-10 -6 0 -11 5 -11 10 0 6 2 10 4 10 3 0 8 -4 11 -10z m128 -17 c-7 -2 -19 -2
-25 0 -7 3 -2 5 12 5 14 0 19 -2 13 -5z m-2193 -1713 c0 -5 -7 -7 -15 -4 -8 4
-15 8 -15 10 0 2 7 4 15 4 8 0 15 -4 15 -10z m340 -80 c0 -5 -2 -10 -4 -10 -3
0 -8 5 -11 10 -3 6 -1 10 4 10 6 0 11 -4 11 -10z m-50 -80 c0 -5 -2 -10 -4
-10 -3 0 -8 5 -11 10 -3 6 -1 10 4 10 6 0 11 -4 11 -10z m-100 -20 c0 -5 -2
-10 -4 -10 -3 0 -8 5 -11 10 -3 6 -1 10 4 10 6 0 11 -4 11 -10z m-2250 -2300
c0 -5 -2 -10 -4 -10 -3 0 -8 5 -11 10 -3 6 -1 10 4 10 6 0 11 -4 11 -10z m-80
-80 c0 -5 -2 -10 -4 -10 -3 0 -8 5 -11 10 -3 6 -1 10 4 10 6 0 11 -4 11 -10z
m-80 -80 c0 -5 -2 -10 -4 -10 -3 0 -8 5 -11 10 -3 6 -1 10 4 10 6 0 11 -4 11
-10z m-80 -80 c0 -5 -2 -10 -4 -10 -3 0 -8 5 -11 10 -3 6 -1 10 4 10 6 0 11
-4 11 -10z m-80 -80 c0 -5 -2 -10 -4 -10 -3 0 -8 5 -11 10 -3 6 -1 10 4 10 6
0 11 -4 11 -10z m-80 -80 c0 -5 -2 -10 -4 -10 -3 0 -8 5 -11 10 -3 6 -1 10 4
10 6 0 11 -4 11 -10z m-80 -80 c0 -5 -2 -10 -4 -10 -3 0 -8 5 -11 10 -3 6 -1
10 4 10 6 0 11 -4 11 -10z m-313 -316 c-3 -3 -12 -4 -19 -1 -8 3 -5 6 6 6 11
1 17 -2 13 -5z"/>
<path d="M15926 8745 c-3 -9 -6 -29 -5 -43 1 -22 3 -19 10 12 10 40 6 60 -5
31z"/>
<path d="M15881 7568 c-5 -13 -20 -75 -35 -139 -92 -413 -263 -915 -447 -1309
-73 -157 -196 -398 -265 -521 -65 -115 -65 -108 11 -191 22 -24 72 -79 110
-123 92 -107 420 -463 659 -715 105 -111 207 -220 278 -297 32 -35 61 -63 65
-63 4 0 20 -11 34 -23 21 -19 25 -30 21 -60 -4 -32 -2 -37 17 -37 25 0 28 15
5 28 -9 5 -14 15 -12 23 4 10 14 5 35 -18 17 -18 35 -33 40 -33 6 0 15 -12 21
-26 9 -19 9 -30 0 -47 -11 -19 -13 -20 -16 -4 -3 13 -13 17 -43 17 -21 0 -39
-4 -39 -10 0 -5 5 -10 10 -10 6 0 10 -21 10 -47 -1 -42 -2 -46 -14 -30 -8 11
-27 17 -50 17 -40 0 -41 -2 -24 -29 20 -33 3 -51 -47 -51 -25 0 -45 -4 -45
-10 0 -5 5 -10 10 -10 6 0 10 -18 10 -40 0 -22 -4 -40 -10 -40 -5 0 -10 5 -10
10 0 6 -18 10 -40 10 -22 0 -40 -4 -40 -10 0 -5 5 -10 10 -10 6 0 10 -18 10
-40 0 -22 -4 -40 -10 -40 -5 0 -10 5 -10 10 0 6 -18 10 -40 10 -28 0 -40 -4
-40 -14 0 -10 -7 -12 -22 -8 -21 5 -22 4 -9 -12 8 -9 12 -19 9 -22 -3 -2 -33
23 -67 56 -34 33 -63 60 -64 60 -15 0 -815 791 -1040 1028 -59 61 -109 112
-111 112 -2 0 -37 -44 -77 -97 -41 -54 -96 -125 -124 -159 -27 -33 -66 -80
-85 -104 -19 -25 -70 -84 -113 -133 -89 -100 -90 -85 2 -175 l55 -53 -29 -55
c-16 -30 -33 -57 -37 -60 -4 -3 -20 8 -36 23 -16 15 -66 64 -113 107 -46 44
-102 97 -125 118 l-41 39 -154 -137 c-85 -75 -185 -162 -224 -193 -38 -31 -72
-58 -75 -62 -4 -5 -162 -126 -182 -140 -5 -3 6 -37 23 -75 17 -38 42 -91 54
-119 74 -164 126 -272 266 -550 191 -379 299 -588 308 -595 4 -3 22 -38 41
-77 19 -40 38 -73 42 -73 4 0 8 -8 8 -18 0 -10 6 -26 13 -37 8 -11 16 -29 19
-40 3 -11 9 -28 13 -38 5 -13 2 -17 -13 -17 -13 0 -22 8 -25 23 l-4 22 -2 -22
c-1 -17 -7 -23 -26 -23 -14 0 -25 -4 -25 -10 0 -5 10 -10 23 -10 31 -1 61 -26
54 -45 -5 -11 -20 -15 -57 -15 -27 0 -50 -4 -50 -10 0 -5 5 -10 10 -10 6 0 10
-18 10 -40 0 -22 -4 -40 -10 -40 -5 0 -10 5 -10 10 0 6 -18 10 -40 10 -22 0
-40 -4 -40 -10 0 -5 7 -10 15 -10 8 0 15 -4 15 -10 0 -5 -7 -10 -15 -10 -8 0
-15 5 -15 10 0 6 -7 10 -16 10 -9 0 -22 7 -28 15 -8 11 -21 13 -48 9 -47 -8
-50 -24 -4 -24 26 0 36 -5 41 -21 10 -31 -9 -43 -65 -40 -39 2 -50 -1 -50 -12
0 -10 7 -13 20 -10 11 3 20 0 20 -6 0 -6 -6 -11 -14 -11 -8 0 -16 -5 -18 -11
-4 -12 -58 63 -58 81 0 5 -4 10 -9 10 -5 0 -14 15 -22 32 -7 18 -25 52 -41 75
-15 23 -32 52 -38 65 -5 13 -29 52 -51 88 -42 66 -61 99 -107 180 -14 25 -36
62 -49 82 -12 21 -23 40 -23 43 0 9 -64 110 -72 113 -4 2 -8 8 -8 13 0 6 -18
37 -40 69 -22 32 -40 62 -40 65 0 3 -20 36 -43 73 -86 133 -202 347 -232 427
-11 28 -34 78 -53 113 -33 60 -35 62 -56 49 -25 -16 -154 -90 -246 -141 -102
-56 -385 -197 -490 -244 -217 -96 -602 -241 -779 -293 -36 -10 -95 -28 -131
-39 -36 -11 -132 -36 -215 -56 -82 -20 -154 -40 -158 -44 -4 -4 -1 -52 8 -106
15 -96 58 -362 75 -474 8 -52 48 -290 106 -635 14 -82 34 -202 46 -265 34
-189 60 -362 63 -420 2 -30 8 -56 14 -58 6 -2 11 -9 11 -15 0 -7 5 -19 10 -27
9 -13 11 -13 21 0 8 11 12 12 16 3 7 -18 23 -16 23 3 0 9 7 14 18 12 11 -2 25
2 33 8 19 16 89 27 89 15 0 -5 -8 -12 -17 -14 -10 -3 -1 -5 20 -6 41 -1 44 -5
23 -27 -16 -16 -51 -19 -41 -4 3 5 0 7 -9 4 -8 -3 -16 2 -19 13 -4 15 -5 15
-6 1 -1 -20 -33 -32 -63 -23 -23 7 -23 7 -3 -10 20 -16 20 -16 -2 -12 -13 3
-23 1 -23 -4 0 -5 15 -9 33 -10 27 0 29 -2 12 -10 -33 -15 72 0 145 21 36 10
82 21 103 25 26 4 37 11 37 23 0 14 2 14 9 3 8 -12 25 -10 108 13 98 27 130
37 168 52 11 4 25 8 30 9 37 5 74 18 70 25 -3 4 2 11 11 14 24 9 31 7 14 -5
-20 -14 47 -1 75 14 11 6 26 10 33 9 6 -2 12 4 12 12 0 20 19 31 32 18 9 -9
136 23 148 37 3 3 16 8 30 9 14 2 39 10 55 17 17 7 59 23 95 35 74 26 271 105
314 126 16 8 33 14 38 14 10 0 163 67 273 119 316 152 420 203 423 212 2 5 10
9 17 9 8 0 21 7 29 16 9 8 16 13 16 9 0 -3 35 13 78 36 42 24 88 49 102 55 14
7 36 23 50 36 13 13 26 22 27 21 12 -11 13 0 2 14 -13 16 -12 17 4 4 14 -11
23 -12 43 -2 14 6 23 15 20 19 -2 4 3 8 13 9 28 2 152 84 144 96 -3 6 -1 7 5
3 14 -8 194 102 187 115 -3 5 0 6 8 3 8 -3 21 1 29 9 8 8 29 22 47 32 26 13
31 19 20 26 -10 6 -9 8 6 7 28 -2 75 30 68 48 -3 8 0 14 7 14 6 0 8 -4 5 -10
-3 -5 -3 -10 0 -10 8 0 79 53 83 63 2 4 8 7 13 7 6 0 36 19 67 42 74 55 80 59
108 86 14 12 27 22 31 22 5 0 81 57 93 70 3 3 23 18 45 35 21 16 46 35 55 42
8 8 49 41 90 74 41 33 88 72 104 87 16 15 45 40 65 55 46 37 164 143 260 234
42 39 87 82 101 93 14 12 24 27 22 32 -1 5 2 7 7 3 6 -3 16 3 23 15 19 29 36
25 75 -20 20 -22 39 -40 43 -40 19 0 490 552 490 575 0 4 -13 18 -30 32 -29
24 -40 53 -20 53 6 0 10 4 10 9 0 5 -7 8 -16 7 -9 0 -19 6 -21 14 -4 13 -3 13
6 0 9 -13 12 -13 20 -1 5 7 14 10 20 7 6 -4 11 0 11 8 0 9 7 16 15 16 8 0 15
3 15 8 0 6 20 33 62 82 13 15 15 20 17 53 0 9 6 17 11 17 7 0 7 -7 0 -22 -8
-17 -3 -14 19 10 17 18 31 39 31 48 0 8 4 13 8 10 5 -3 19 8 31 24 12 17 17
30 11 30 -5 0 -10 8 -10 18 0 14 2 15 10 2 7 -12 16 -7 44 25 19 21 33 41 31
43 -2 2 4 11 13 20 10 10 29 32 43 50 l25 33 24 -19 24 -19 26 36 c15 20 61
92 104 161 43 69 86 136 95 150 21 31 170 291 240 420 108 199 321 643 438
915 65 150 123 296 123 308 0 7 9 29 20 50 11 20 20 48 20 61 0 13 7 29 16 37
8 7 13 21 11 31 -3 10 -2 20 2 23 4 2 13 30 20 62 8 32 18 67 24 78 6 11 14
36 18 55 7 30 26 92 46 150 3 8 7 24 8 35 5 32 62 247 74 278 6 16 11 43 11
62 0 19 4 36 9 39 5 3 12 27 16 53 5 27 10 53 11 58 16 57 65 319 61 329 -3 8
-33 15 -84 19 -43 4 -118 11 -168 17 -49 5 -160 16 -245 24 -85 8 -245 24
-355 35 -359 37 -506 50 -805 76 -162 13 -321 27 -353 30 -53 6 -58 4 -66 -17z
m-857 -3292 c136 -49 240 -150 298 -287 19 -46 22 -73 23 -180 l0 -126 -43
-85 c-117 -237 -378 -341 -623 -249 -200 76 -335 289 -315 502 30 326 355 536
660 425z m1416 -270 c0 -2 -8 -10 -17 -17 -16 -13 -17 -12 -4 4 13 16 21 21
21 13z m10 -36 c0 -5 -5 -10 -11 -10 -5 0 -7 5 -4 10 3 6 8 10 11 10 2 0 4 -4
4 -10z m-43 -63 c-16 -24 -37 -34 -37 -18 0 6 7 11 15 11 14 0 20 12 16 33 -1
5 3 5 9 2 8 -5 7 -13 -3 -28z m-62 -77 c3 -5 1 -10 -4 -10 -6 0 -11 5 -11 10
0 6 2 10 4 10 3 0 8 -4 11 -10z m-155 -185 c-14 -17 -30 -20 -30 -4 0 5 4 8 9
5 5 -3 12 1 15 10 4 9 9 14 13 11 3 -4 0 -13 -7 -22z m-76 -41 c9 -3 16 -11
16 -16 0 -6 -7 -5 -16 3 -13 10 -17 10 -25 -2 -5 -8 -9 -9 -9 -3 0 10 9 24 16
24 1 0 9 -3 18 -6z m-874 -313 c0 -5 16 -25 36 -45 24 -24 34 -42 30 -52 -4
-12 -2 -15 9 -11 17 7 30 -9 15 -18 -13 -8 -5 -22 22 -36 14 -8 18 -8 14 0 -4
7 -1 9 7 5 10 -3 14 -19 13 -45 -1 -42 -5 -46 -24 -27 -9 9 -12 9 -12 0 0 -7
-9 -12 -20 -12 -14 0 -22 11 -31 40 -10 33 -15 38 -27 28 -9 -8 -10 -14 -3
-16 11 -4 16 -32 6 -32 -3 0 -19 15 -35 33 -22 24 -30 42 -30 72 0 25 -3 35
-9 27 -4 -7 -6 -25 -4 -40 4 -27 4 -27 -26 8 -17 19 -31 38 -31 42 0 4 -7 8
-15 8 -28 0 -15 15 31 35 25 11 50 26 56 33 12 14 28 16 28 3z m207 -273 c-3
-8 -6 -5 -6 6 -1 11 2 17 5 13 3 -3 4 -12 1 -19z m53 -18 c0 -5 -4 -10 -10
-10 -5 0 -10 5 -10 10 0 6 5 10 10 10 6 0 10 -4 10 -10z m-230 -304 c0 -3 -4
-8 -10 -11 -5 -3 -10 -1 -10 4 0 6 5 11 10 11 6 0 10 -2 10 -4z m-180 -166 c0
-5 -5 -10 -11 -10 -5 0 -7 5 -4 10 3 6 8 10 11 10 2 0 4 -4 4 -10z m-280 -214
c0 -3 -4 -8 -10 -11 -5 -3 -10 -1 -10 4 0 6 5 11 10 11 6 0 10 -2 10 -4z
m-370 -300 c0 -3 -4 -8 -10 -11 -5 -3 -10 -1 -10 4 0 6 5 11 10 11 6 0 10 -2
10 -4z m-603 -238 c-3 -8 -6 -5 -6 6 -1 11 2 17 5 13 3 -3 4 -12 1 -19z m153
-52 c0 -3 -4 -8 -10 -11 -5 -3 -10 -1 -10 4 0 6 5 11 10 11 6 0 10 -2 10 -4z
m-360 -220 c0 -2 -7 -7 -16 -10 -8 -3 -12 -2 -9 4 6 10 25 14 25 6z m-185 -76
c3 -6 -1 -7 -9 -4 -18 7 -21 14 -7 14 6 0 13 -4 16 -10z m-75 -64 c0 -3 -4 -8
-10 -11 -5 -3 -10 -1 -10 4 0 6 5 11 10 11 6 0 10 -2 10 -4z m-83 -12 c-3 -3
-12 -4 -19 -1 -8 3 -5 6 6 6 11 1 17 -2 13 -5z m-137 -14 c0 -5 -7 -10 -16
-10 -8 0 -12 5 -9 10 3 6 10 10 16 10 5 0 9 -4 9 -10z m170 6 c0 -3 -4 -8 -10
-11 -5 -3 -10 -1 -10 4 0 6 5 11 10 11 6 0 10 -2 10 -4z m-222 -36 c-7 -11
-16 -20 -20 -20 -13 0 -9 28 5 33 23 10 27 7 15 -13z m-68 -107 c0 -1 -8 -6
-17 -12 -12 -6 -22 -5 -30 4 -8 9 -5 12 18 11 16 -1 29 -2 29 -3z m-252 -83
c-14 -4 -32 -11 -40 -15 -7 -3 -4 1 6 9 11 9 29 16 40 15 17 -1 16 -2 -6 -9z
m-213 -79 c-3 -5 -1 -12 5 -16 13 -8 3 -25 -13 -25 -8 0 -8 3 2 9 9 6 10 11 2
15 -10 7 -6 26 5 26 3 0 3 -4 -1 -9z m-35 -20 c0 -4 -11 -6 -25 -3 -14 2 -25
6 -25 8 0 2 11 4 25 4 14 0 25 -4 25 -9z m-10 -27 c0 -2 -9 -4 -20 -4 -11 0
-20 4 -20 9 0 5 9 7 20 4 11 -3 20 -7 20 -9z m-101 -36 c27 -8 -11 -16 -39 -7
-16 4 -19 7 -7 8 9 1 17 7 17 14 0 8 3 9 8 1 4 -6 14 -13 21 -16z m-72 6 c-3
-3 -12 -4 -19 -1 -8 3 -5 6 6 6 11 1 17 -2 13 -5z m-107 -14 c0 -5 -9 -10 -21
-10 -11 0 -17 5 -14 10 3 6 13 10 21 10 8 0 14 -4 14 -10z m95 -9 c-3 -5 2
-12 10 -14 12 -4 12 -5 -1 -3 -19 1 -32 26 -14 26 6 0 9 -4 5 -9z m-302 -48
c-7 -2 -19 -2 -25 0 -7 3 -2 5 12 5 14 0 19 -2 13 -5z m97 -19 c0 -2 -11 -4
-25 -4 -14 0 -25 4 -25 9 0 4 11 6 25 3 14 -2 25 -6 25 -8z m64 2 c-3 -8 -12
-12 -21 -9 -12 5 -12 7 -1 14 20 13 28 11 22 -5z m-287 -35 c12 -19 11 -19
-17 -9 -17 5 -27 14 -24 19 9 15 28 10 41 -10z m216 2 c-7 -2 -19 -2 -25 0 -7
3 -2 5 12 5 14 0 19 -2 13 -5z m-268 -33 c-3 -5 -12 -7 -20 -3 -21 7 -19 13 6
13 11 0 18 -4 14 -10z m-75 -20 c0 -5 -4 -10 -10 -10 -5 0 -10 5 -10 10 0 6 5
10 10 10 6 0 10 -4 10 -10z m117 4 c-3 -3 -12 -4 -19 -1 -8 3 -5 6 6 6 11 1
17 -2 13 -5z m-47 -14 c-11 -7 -11 -10 -2 -10 7 0 10 -5 6 -11 -4 -8 -9 -7
-15 2 -9 15 -3 29 14 29 7 0 6 -4 -3 -10z m-235 -10 c-27 -12 -43 -12 -25 0 8
5 22 9 30 9 10 0 8 -3 -5 -9z m185 -9 c0 -6 -4 -13 -10 -16 -5 -3 -10 1 -10 9
0 9 5 16 10 16 6 0 10 -4 10 -9z m-264 -18 c-15 -4 -16 -7 -5 -13 7 -5 -5 -6
-29 -3 -34 5 -42 3 -42 -11 0 -13 -10 -16 -51 -16 -36 0 -49 4 -46 13 2 6 20
12 39 12 20 0 34 3 32 7 -5 7 40 14 91 15 17 0 22 -1 11 -4z m141 -9 c-3 -3
-12 -4 -19 -1 -8 3 -5 6 6 6 11 1 17 -2 13 -5z m60 -10 c-3 -3 -12 -4 -19 -1
-8 3 -5 6 6 6 11 1 17 -2 13 -5z m-183 -19 c-22 -17 -34 -19 -34 -6 0 5 8 12
18 14 32 9 36 7 16 -8z m129 8 c-7 -2 -19 -2 -25 0 -7 3 -2 5 12 5 14 0 19 -2
13 -5z m-78 -13 c3 -6 -1 -7 -9 -4 -18 7 -21 14 -7 14 6 0 13 -4 16 -10z m35
6 c0 -3 -4 -8 -10 -11 -5 -3 -10 -1 -10 4 0 6 5 11 10 11 6 0 10 -2 10 -4z
m-251 -70 c-14 -7 -43 -16 -65 -19 -25 -4 -32 -4 -19 2 64 27 129 41 84 17z
m-104 -6 c-3 -5 -12 -10 -18 -10 -7 0 -6 4 3 10 19 12 23 12 15 0z"/>
<path d="M15186 3225 c-11 -8 -15 -15 -9 -15 6 0 16 7 23 15 16 19 11 19 -14
0z"/>
<path d="M18426 7414 c-40 -13 -89 -39 -139 -75 -5 -4 -31 -96 -57 -205 l-49
-199 23 -50 c31 -67 97 -131 176 -169 58 -27 75 -31 155 -31 76 0 98 4 145 26
31 14 73 41 93 59 36 31 37 34 37 99 l0 66 -19 -30 c-71 -114 -227 -170 -354
-126 -58 20 -129 82 -162 142 -26 47 -30 64 -30 134 0 96 22 152 85 215 58 58
119 82 205 83 108 0 180 -37 247 -128 l29 -39 -3 68 -3 69 -55 38 c-95 65
-217 85 -324 53z"/>
<path d="M13200 6193 c0 -13 5 -23 10 -23 13 0 13 11 0 30 -8 12 -10 11 -10
-7z"/>
<path d="M13120 6106 c0 -9 5 -16 10 -16 6 0 10 4 10 9 0 6 -4 13 -10 16 -5 3
-10 -1 -10 -9z"/>
<path d="M13212 5990 c-10 -17 -10 -25 3 -43 14 -21 15 -20 15 21 0 23 -1 42
-3 42 -1 0 -8 -9 -15 -20z"/>
<path d="M17505 5134 c-9 -9 -38 -60 -65 -113 -27 -53 -63 -121 -81 -151 -17
-30 -41 -73 -53 -95 -395 -702 -922 -1394 -1496 -1965 -246 -244 -656 -646
-712 -698 -32 -29 -58 -54 -58 -55 0 -5 3239 -2 3243 3 3 3 10 160 16 350 6
190 16 467 21 615 5 149 17 506 26 795 8 289 21 703 28 920 7 217 13 396 12
397 -1 1 -195 4 -433 7 -390 5 -433 4 -448 -10z"/>
<path d="M3480 4405 c-332 -75 -548 -410 -474 -738 27 -120 78 -211 169 -302
125 -126 264 -185 432 -185 112 0 172 14 279 65 145 70 251 186 311 343 35 92
44 262 18 360 -39 148 -155 306 -278 380 -129 78 -315 109 -457 77z m261 -131
c244 -72 399 -307 361 -551 -40 -255 -275 -442 -530 -420 -182 15 -355 143
-424 314 -20 50 -23 75 -23 183 0 124 0 126 37 203 43 89 134 189 208 227 110
57 264 76 371 44z"/>
<path d="M18465 4260 c-2 -3 -4 -34 -3 -68 l1 -62 93 0 c106 0 109 2 102 90
l-3 44 -93 2 c-51 1 -94 -2 -97 -6z"/>
<path d="M16210 4196 c0 -2 7 -6 15 -10 8 -3 15 -1 15 4 0 6 -7 10 -15 10 -8
0 -15 -2 -15 -4z"/>
<path d="M16185 4180 c-3 -5 -1 -10 4 -10 6 0 11 5 11 10 0 6 -2 10 -4 10 -3
0 -8 -4 -11 -10z"/>
<path d="M11004 4005 c-6 -14 3 -52 10 -44 2 2 6 16 10 32 7 29 -10 39 -20 12z"/>
<path d="M18554 3153 l-112 -4 -6 -31 c-3 -17 -6 -43 -6 -59 l0 -29 113 0 c63
0 148 -3 190 -6 l77 -7 0 72 0 71 -72 -2 c-40 -1 -123 -4 -184 -5z"/>
<path d="M10081 2744 c0 -11 3 -14 6 -6 3 7 2 16 -1 19 -3 4 -6 -2 -5 -13z"/>
<path d="M9908 2723 c6 -2 18 -2 25 0 6 3 1 5 -13 5 -14 0 -19 -2 -12 -5z"/>
<path d="M9985 2719 l-20 -9 20 2 c11 2 26 -1 33 -6 8 -5 18 -4 25 3 8 8 8 11
0 11 -6 0 -17 2 -25 4 -7 3 -22 0 -33 -5z"/>
<path d="M9848 2713 c6 -2 18 -2 25 0 6 3 1 5 -13 5 -14 0 -19 -2 -12 -5z"/>
<path d="M9940 2700 c0 -5 5 -10 11 -10 5 0 7 5 4 10 -3 6 -8 10 -11 10 -2 0
-4 -4 -4 -10z"/>
<path d="M9873 2693 c9 -2 25 -2 35 0 9 3 1 5 -18 5 -19 0 -27 -2 -17 -5z"/>
<path d="M9990 2690 c-12 -8 -11 -10 8 -10 12 0 22 5 22 10 0 13 -11 13 -30 0z"/>
<path d="M9900 2670 c0 -5 14 -7 33 -3 45 8 47 13 4 13 -20 0 -37 -4 -37 -10z"/>
<path d="M9380 2035 c-288 -65 -492 -318 -491 -606 1 -117 15 -178 66 -284 72
-151 206 -266 370 -318 100 -32 291 -31 385 2 194 67 347 228 406 426 23 79
24 259 2 330 -68 215 -198 353 -401 427 -100 36 -237 46 -337 23z m256 -129
c243 -65 403 -306 364 -552 -31 -201 -181 -361 -382 -409 -79 -19 -125 -19
-213 0 -98 21 -170 60 -243 132 -164 162 -195 422 -71 614 62 98 193 194 297
218 58 14 192 12 248 -3z"/>
<path d="M10940 620 c0 -27 -3 -30 -29 -30 -34 0 -50 -16 -24 -23 10 -3 3 -5
-14 -6 -18 0 -33 -5 -33 -11 0 -5 -8 -10 -17 -11 -15 0 -15 -2 2 -9 17 -8 16
-9 -10 -10 -89 -2 -145 -13 -145 -26 0 -11 9 -13 43 -8 23 4 46 10 52 15 5 5
24 9 41 9 18 0 35 4 38 9 3 4 18 7 33 5 17 -2 20 -1 8 2 -29 9 -44 25 -20 23
11 -1 34 -1 50 0 26 2 27 3 10 11 -17 7 -17 9 -2 9 9 1 17 6 17 11 0 6 5 10
10 10 6 0 10 -9 10 -20 0 -11 6 -20 13 -20 8 0 7 -4 -3 -10 -10 -6 -2 -7 25
-3 47 7 58 13 25 13 -23 0 -23 1 -5 14 17 12 16 14 -18 25 -29 10 -37 18 -37
37 0 13 -4 24 -10 24 -5 0 -10 -13 -10 -30z"/>
<path d="M11040 575 c0 -14 18 -20 50 -16 45 5 61 9 68 16 4 4 -3 4 -15 1 -14
-5 -23 -3 -23 3 0 6 -18 11 -40 11 -29 0 -40 -4 -40 -15z"/>
<path d="M10797 559 c7 -7 15 -10 18 -7 3 3 -2 9 -12 12 -14 6 -15 5 -6 -5z"/>
<path d="M10730 540 c-13 -9 -13 -10 0 -9 8 0 24 4 35 9 l20 9 -20 0 c-11 0
-27 -4 -35 -9z"/>
<path d="M10928 533 c7 -3 16 -2 19 1 4 3 -2 6 -13 5 -11 0 -14 -3 -6 -6z"/>
<path d="M10272 475 c-11 -13 -8 -15 18 -15 28 0 30 2 16 15 -18 18 -18 18
-34 0z"/>
<path d="M10580 480 c18 -12 50 -13 67 -2 7 4 -8 9 -35 10 -33 1 -43 -1 -32
-8z"/>
<path d="M10340 466 c0 -2 9 -6 20 -9 11 -3 18 -1 14 4 -5 9 -34 13 -34 5z"/>
<path d="M10518 463 c12 -2 30 -2 40 0 9 3 -1 5 -23 4 -22 0 -30 -2 -17 -4z"/>
<path d="M10208 453 c6 -2 18 -2 25 0 6 3 1 5 -13 5 -14 0 -19 -2 -12 -5z"/>
<path d="M10413 453 c9 -2 23 -2 30 0 6 3 -1 5 -18 5 -16 0 -22 -2 -12 -5z"/>
<path d="M10235 440 c-30 -8 -30 -8 8 -9 20 0 37 4 37 9 0 11 -2 11 -45 0z"/>
<path d="M10308 443 c7 -3 16 -2 19 1 4 3 -2 6 -13 5 -11 0 -14 -3 -6 -6z"/>
</g>
</svg>
